<?xml version="1.0" encoding="UTF-8" standalone="no"?>
<svg xmlns="http://www.w3.org/2000/svg" version="1.1" xmlns:xlink="http://www.w3.org/1999/xlink" xmlns:svgjs="http://svgjs.com/svgjs" width="512" height="512" x="0" y="0" viewBox="0 0 512 512" style="enable-background:new 0 0 512 512" xml:space="preserve" class=""><g><g><path d="m315.429 135c0-8.276-6.724-15-15-15h-15v30h15c8.276 0 15-6.724 15-15z" fill="#ff0000" data-original="#000000" class=""></path><path d="m421 452h-122.763c-4.532-12.708-14.529-22.705-27.237-27.237v-43.455l100.474-98.447c31.933-31.289 49.526-73.154 49.526-117.861 0-90.981-74.019-165-165-165s-165 74.019-165 165c0 44.707 17.593 86.572 49.526 117.861l100.474 98.447v43.455c-12.708 4.532-22.705 14.529-27.237 27.237h-122.763v30h122.763c6.213 17.422 22.707 30 42.237 30s36.024-12.578 42.237-30h122.763zm-165.571-362h45c24.814 0 45 20.186 45 45s-20.186 45-45 45h-15v60h-30zm-30 150h-30v-150h30z" fill="#ff0000" data-original="#000000" class=""></path></g></g></svg>